<mxfile host="app.diagrams.net" modified="2024-04-19T12:17:26.780Z" agent="Mozilla/5.0 (Windows NT 10.0; Win64; x64) AppleWebKit/537.36 (KHTML, like Gecko) Chrome/123.0.0.0 Safari/537.36 Edg/123.0.0.0" etag="93tvtrM3vVuOYdDWUZX8" version="24.2.5" type="github">
  <diagram name="Page-1" id="Iqsweie7DNG1V22xSdKr">
    <mxGraphModel dx="1431" dy="813" grid="1" gridSize="10" guides="1" tooltips="1" connect="1" arrows="1" fold="1" page="1" pageScale="1" pageWidth="1654" pageHeight="2336" math="0" shadow="0">
      <root>
        <mxCell id="0" />
        <mxCell id="1" parent="0" />
        <mxCell id="gb4WSrx7NsK-yjNkoUn3-1" value="USER&lt;div&gt;&lt;br&gt;&lt;/div&gt;" style="shape=umlActor;verticalLabelPosition=bottom;verticalAlign=top;html=1;" parent="1" vertex="1">
          <mxGeometry x="10" y="20" width="30" height="60" as="geometry" />
        </mxCell>
        <mxCell id="gb4WSrx7NsK-yjNkoUn3-2" value="Đăng kí" style="ellipse;whiteSpace=wrap;html=1;" parent="1" vertex="1">
          <mxGeometry x="540" width="140" height="70" as="geometry" />
        </mxCell>
        <mxCell id="gb4WSrx7NsK-yjNkoUn3-3" value="Thay đổi thông tin cá nhân" style="ellipse;whiteSpace=wrap;html=1;" parent="1" vertex="1">
          <mxGeometry x="1220" y="361" width="140" height="70" as="geometry" />
        </mxCell>
        <mxCell id="gb4WSrx7NsK-yjNkoUn3-4" value="Mua sản phẩm" style="ellipse;whiteSpace=wrap;html=1;" parent="1" vertex="1">
          <mxGeometry x="320" y="291" width="140" height="70" as="geometry" />
        </mxCell>
        <mxCell id="gb4WSrx7NsK-yjNkoUn3-9" value="ADMIN&lt;div&gt;&lt;br&gt;&lt;/div&gt;" style="shape=umlActor;verticalLabelPosition=bottom;verticalAlign=top;html=1;" parent="1" vertex="1">
          <mxGeometry x="1440" y="20" width="30" height="60" as="geometry" />
        </mxCell>
        <mxCell id="gb4WSrx7NsK-yjNkoUn3-12" value="" style="endArrow=open;html=1;rounded=0;entryX=0;entryY=0.5;entryDx=0;entryDy=0;exitX=1;exitY=0.3333333333333333;exitDx=0;exitDy=0;exitPerimeter=0;endFill=0;" parent="1" source="gb4WSrx7NsK-yjNkoUn3-1" target="gb4WSrx7NsK-yjNkoUn3-2" edge="1">
          <mxGeometry width="50" height="50" relative="1" as="geometry">
            <mxPoint x="70" y="170" as="sourcePoint" />
            <mxPoint x="450" y="270" as="targetPoint" />
            <Array as="points" />
          </mxGeometry>
        </mxCell>
        <mxCell id="gb4WSrx7NsK-yjNkoUn3-14" value="" style="endArrow=open;html=1;rounded=0;entryX=0;entryY=0.5;entryDx=0;entryDy=0;exitX=1;exitY=0.3333333333333333;exitDx=0;exitDy=0;exitPerimeter=0;startArrow=none;startFill=0;endFill=0;" parent="1" source="gb4WSrx7NsK-yjNkoUn3-1" target="gb4WSrx7NsK-yjNkoUn3-4" edge="1">
          <mxGeometry width="50" height="50" relative="1" as="geometry">
            <mxPoint x="80" y="140" as="sourcePoint" />
            <mxPoint x="222.9806969297418" y="231.92351616023467" as="targetPoint" />
          </mxGeometry>
        </mxCell>
        <mxCell id="gb4WSrx7NsK-yjNkoUn3-15" value="" style="endArrow=none;html=1;rounded=0;exitX=1;exitY=0.5;exitDx=0;exitDy=0;entryX=0;entryY=0.3333333333333333;entryDx=0;entryDy=0;entryPerimeter=0;endFill=0;startArrow=open;startFill=0;" parent="1" source="gb4WSrx7NsK-yjNkoUn3-2" target="gb4WSrx7NsK-yjNkoUn3-9" edge="1">
          <mxGeometry width="50" height="50" relative="1" as="geometry">
            <mxPoint x="400" y="320" as="sourcePoint" />
            <mxPoint x="690" y="140" as="targetPoint" />
          </mxGeometry>
        </mxCell>
        <mxCell id="gb4WSrx7NsK-yjNkoUn3-16" value="" style="endArrow=none;html=1;rounded=0;exitX=1;exitY=0.5;exitDx=0;exitDy=0;entryX=0;entryY=0.3333333333333333;entryDx=0;entryDy=0;entryPerimeter=0;startArrow=open;startFill=0;" parent="1" source="gb4WSrx7NsK-yjNkoUn3-3" target="gb4WSrx7NsK-yjNkoUn3-9" edge="1">
          <mxGeometry width="50" height="50" relative="1" as="geometry">
            <mxPoint x="400" y="320" as="sourcePoint" />
            <mxPoint x="690" y="140" as="targetPoint" />
          </mxGeometry>
        </mxCell>
        <mxCell id="gb4WSrx7NsK-yjNkoUn3-17" value="" style="endArrow=none;html=1;rounded=0;exitX=1;exitY=0.5;exitDx=0;exitDy=0;entryX=0;entryY=0.3333333333333333;entryDx=0;entryDy=0;entryPerimeter=0;" parent="1" source="gb4WSrx7NsK-yjNkoUn3-19" target="gb4WSrx7NsK-yjNkoUn3-9" edge="1">
          <mxGeometry width="50" height="50" relative="1" as="geometry">
            <mxPoint x="400" y="320" as="sourcePoint" />
            <mxPoint x="450" y="270" as="targetPoint" />
          </mxGeometry>
        </mxCell>
        <mxCell id="gb4WSrx7NsK-yjNkoUn3-20" value="Chỉnh sửa sản phẩm" style="ellipse;whiteSpace=wrap;html=1;" parent="1" vertex="1">
          <mxGeometry x="1200" y="250" width="140" height="70" as="geometry" />
        </mxCell>
        <mxCell id="gb4WSrx7NsK-yjNkoUn3-21" value="" style="endArrow=none;html=1;rounded=0;entryX=0;entryY=0.3333333333333333;entryDx=0;entryDy=0;entryPerimeter=0;startArrow=open;startFill=0;" parent="1" source="gb4WSrx7NsK-yjNkoUn3-18" target="gb4WSrx7NsK-yjNkoUn3-9" edge="1">
          <mxGeometry width="50" height="50" relative="1" as="geometry">
            <mxPoint x="400" y="320" as="sourcePoint" />
            <mxPoint x="690" y="140" as="targetPoint" />
          </mxGeometry>
        </mxCell>
        <mxCell id="gb4WSrx7NsK-yjNkoUn3-22" value="" style="endArrow=none;html=1;rounded=0;exitX=1;exitY=0.5;exitDx=0;exitDy=0;entryX=0;entryY=0.3333333333333333;entryDx=0;entryDy=0;entryPerimeter=0;startArrow=open;startFill=0;" parent="1" source="gb4WSrx7NsK-yjNkoUn3-19" target="gb4WSrx7NsK-yjNkoUn3-9" edge="1">
          <mxGeometry width="50" height="50" relative="1" as="geometry">
            <mxPoint x="470" y="430" as="sourcePoint" />
            <mxPoint x="690" y="140" as="targetPoint" />
          </mxGeometry>
        </mxCell>
        <mxCell id="gb4WSrx7NsK-yjNkoUn3-23" value="" style="endArrow=none;html=1;rounded=0;exitX=0.997;exitY=0.406;exitDx=0;exitDy=0;exitPerimeter=0;entryX=0;entryY=0.3333333333333333;entryDx=0;entryDy=0;entryPerimeter=0;startArrow=open;startFill=0;" parent="1" source="gb4WSrx7NsK-yjNkoUn3-20" target="gb4WSrx7NsK-yjNkoUn3-9" edge="1">
          <mxGeometry width="50" height="50" relative="1" as="geometry">
            <mxPoint x="470" y="520" as="sourcePoint" />
            <mxPoint x="690" y="140" as="targetPoint" />
          </mxGeometry>
        </mxCell>
        <mxCell id="gb4WSrx7NsK-yjNkoUn3-24" value="Quản lý tài khoản" style="ellipse;whiteSpace=wrap;html=1;" parent="1" vertex="1">
          <mxGeometry x="820" y="60" width="145" height="70" as="geometry" />
        </mxCell>
        <mxCell id="gb4WSrx7NsK-yjNkoUn3-25" value="" style="endArrow=none;html=1;rounded=0;exitX=1;exitY=0;exitDx=0;exitDy=0;entryX=0;entryY=0.3333333333333333;entryDx=0;entryDy=0;entryPerimeter=0;" parent="1" source="gb4WSrx7NsK-yjNkoUn3-24" target="gb4WSrx7NsK-yjNkoUn3-9" edge="1">
          <mxGeometry width="50" height="50" relative="1" as="geometry">
            <mxPoint x="490" y="510" as="sourcePoint" />
            <mxPoint x="690" y="140" as="targetPoint" />
          </mxGeometry>
        </mxCell>
        <mxCell id="gb4WSrx7NsK-yjNkoUn3-26" value="&amp;lt;extend&amp;gt;" style="html=1;verticalAlign=bottom;endArrow=open;dashed=1;endSize=8;curved=0;rounded=0;exitX=0.5;exitY=0;exitDx=0;exitDy=0;" parent="1" source="gb4WSrx7NsK-yjNkoUn3-27" target="gb4WSrx7NsK-yjNkoUn3-28" edge="1">
          <mxGeometry relative="1" as="geometry">
            <mxPoint x="551.2242759721737" y="37.13885221478256" as="sourcePoint" />
            <mxPoint x="407.31999999999994" y="40.42999999999995" as="targetPoint" />
          </mxGeometry>
        </mxCell>
        <mxCell id="gb4WSrx7NsK-yjNkoUn3-27" value="Kiểm tra tài khoản không hợp lệ" style="ellipse;whiteSpace=wrap;html=1;" parent="1" vertex="1">
          <mxGeometry x="610" y="330" width="240" height="70" as="geometry" />
        </mxCell>
        <mxCell id="gb4WSrx7NsK-yjNkoUn3-28" value="Đăng nhập" style="ellipse;whiteSpace=wrap;html=1;" parent="1" vertex="1">
          <mxGeometry x="640" y="160" width="140" height="70" as="geometry" />
        </mxCell>
        <mxCell id="gb4WSrx7NsK-yjNkoUn3-30" value="" style="endArrow=open;html=1;rounded=0;exitX=1;exitY=0.3333333333333333;exitDx=0;exitDy=0;exitPerimeter=0;entryX=0;entryY=0;entryDx=0;entryDy=0;startArrow=none;startFill=0;endFill=0;" parent="1" source="gb4WSrx7NsK-yjNkoUn3-1" target="gb4WSrx7NsK-yjNkoUn3-48" edge="1">
          <mxGeometry width="50" height="50" relative="1" as="geometry">
            <mxPoint x="70" y="290" as="sourcePoint" />
            <mxPoint x="180" y="110" as="targetPoint" />
          </mxGeometry>
        </mxCell>
        <mxCell id="gb4WSrx7NsK-yjNkoUn3-31" value="&amp;lt;include&amp;gt;" style="endArrow=open;endSize=12;dashed=1;html=1;rounded=0;exitX=0.259;exitY=0.043;exitDx=0;exitDy=0;exitPerimeter=0;entryX=0.595;entryY=0.981;entryDx=0;entryDy=0;entryPerimeter=0;" parent="1" source="gb4WSrx7NsK-yjNkoUn3-28" target="gb4WSrx7NsK-yjNkoUn3-2" edge="1">
          <mxGeometry width="160" relative="1" as="geometry">
            <mxPoint x="250" y="190" as="sourcePoint" />
            <mxPoint x="450" y="100" as="targetPoint" />
          </mxGeometry>
        </mxCell>
        <mxCell id="gb4WSrx7NsK-yjNkoUn3-32" style="edgeStyle=orthogonalEdgeStyle;rounded=0;orthogonalLoop=1;jettySize=auto;html=1;exitX=1;exitY=0.3333333333333333;exitDx=0;exitDy=0;exitPerimeter=0;entryX=0.651;entryY=0.319;entryDx=0;entryDy=0;entryPerimeter=0;" parent="1" source="gb4WSrx7NsK-yjNkoUn3-9" target="gb4WSrx7NsK-yjNkoUn3-9" edge="1">
          <mxGeometry relative="1" as="geometry" />
        </mxCell>
        <mxCell id="gb4WSrx7NsK-yjNkoUn3-34" value="&amp;lt;include&amp;gt;" style="html=1;verticalAlign=bottom;endArrow=open;dashed=1;endSize=8;curved=0;rounded=0;exitX=0;exitY=0.5;exitDx=0;exitDy=0;entryX=0.5;entryY=1;entryDx=0;entryDy=0;" parent="1" source="gb4WSrx7NsK-yjNkoUn3-3" target="gb4WSrx7NsK-yjNkoUn3-28" edge="1">
          <mxGeometry relative="1" as="geometry">
            <mxPoint x="510" y="270" as="sourcePoint" />
            <mxPoint x="450" y="270" as="targetPoint" />
          </mxGeometry>
        </mxCell>
        <mxCell id="gb4WSrx7NsK-yjNkoUn3-37" value="&amp;lt;include&amp;gt;" style="html=1;verticalAlign=bottom;endArrow=open;dashed=1;endSize=8;curved=0;rounded=0;exitX=1;exitY=0.5;exitDx=0;exitDy=0;entryX=0;entryY=0.5;entryDx=0;entryDy=0;" parent="1" source="gb4WSrx7NsK-yjNkoUn3-4" target="gb4WSrx7NsK-yjNkoUn3-28" edge="1">
          <mxGeometry relative="1" as="geometry">
            <mxPoint x="460" y="290" as="sourcePoint" />
            <mxPoint x="380" y="290" as="targetPoint" />
          </mxGeometry>
        </mxCell>
        <mxCell id="gb4WSrx7NsK-yjNkoUn3-38" value="&amp;lt;include&amp;gt;" style="html=1;verticalAlign=bottom;endArrow=open;dashed=1;endSize=8;curved=0;rounded=0;entryX=1;entryY=0;entryDx=0;entryDy=0;exitX=0;exitY=0.5;exitDx=0;exitDy=0;" parent="1" source="gb4WSrx7NsK-yjNkoUn3-18" target="gb4WSrx7NsK-yjNkoUn3-28" edge="1">
          <mxGeometry x="-0.3425" y="-10" relative="1" as="geometry">
            <mxPoint x="170" y="510" as="sourcePoint" />
            <mxPoint x="90" y="510" as="targetPoint" />
            <Array as="points">
              <mxPoint x="980" y="140" />
            </Array>
            <mxPoint as="offset" />
          </mxGeometry>
        </mxCell>
        <mxCell id="gb4WSrx7NsK-yjNkoUn3-39" value="&amp;lt;include&amp;gt;" style="html=1;verticalAlign=bottom;endArrow=open;dashed=1;endSize=8;curved=0;rounded=0;entryX=1;entryY=0.5;entryDx=0;entryDy=0;exitX=0;exitY=0.5;exitDx=0;exitDy=0;" parent="1" source="gb4WSrx7NsK-yjNkoUn3-19" target="gb4WSrx7NsK-yjNkoUn3-28" edge="1">
          <mxGeometry relative="1" as="geometry">
            <mxPoint x="790.0000000000073" y="235" as="sourcePoint" />
            <mxPoint x="449.9999999999998" y="270" as="targetPoint" />
          </mxGeometry>
        </mxCell>
        <mxCell id="gb4WSrx7NsK-yjNkoUn3-41" value="&amp;lt;include&amp;gt;" style="html=1;verticalAlign=bottom;endArrow=open;dashed=1;endSize=8;curved=0;rounded=0;entryX=1;entryY=1;entryDx=0;entryDy=0;exitX=0;exitY=0.5;exitDx=0;exitDy=0;" parent="1" source="gb4WSrx7NsK-yjNkoUn3-20" target="gb4WSrx7NsK-yjNkoUn3-28" edge="1">
          <mxGeometry relative="1" as="geometry">
            <mxPoint x="680" y="540" as="sourcePoint" />
            <mxPoint x="600" y="540" as="targetPoint" />
          </mxGeometry>
        </mxCell>
        <mxCell id="gb4WSrx7NsK-yjNkoUn3-42" value="&amp;lt;include&amp;gt;" style="html=1;verticalAlign=bottom;endArrow=open;dashed=1;endSize=8;curved=0;rounded=0;exitX=0;exitY=0.5;exitDx=0;exitDy=0;entryX=0.602;entryY=-0.012;entryDx=0;entryDy=0;entryPerimeter=0;" parent="1" source="gb4WSrx7NsK-yjNkoUn3-24" target="gb4WSrx7NsK-yjNkoUn3-28" edge="1">
          <mxGeometry x="-0.0011" relative="1" as="geometry">
            <mxPoint x="710" y="420" as="sourcePoint" />
            <mxPoint x="630" y="420" as="targetPoint" />
            <mxPoint as="offset" />
          </mxGeometry>
        </mxCell>
        <mxCell id="gb4WSrx7NsK-yjNkoUn3-18" value="Thêm sản phẩm" style="ellipse;whiteSpace=wrap;html=1;" parent="1" vertex="1">
          <mxGeometry x="1090" y="90" width="140" height="70" as="geometry" />
        </mxCell>
        <mxCell id="gb4WSrx7NsK-yjNkoUn3-19" value="Xóa sản phẩm" style="ellipse;whiteSpace=wrap;html=1;" parent="1" vertex="1">
          <mxGeometry x="1180" y="160" width="140" height="70" as="geometry" />
        </mxCell>
        <mxCell id="gb4WSrx7NsK-yjNkoUn3-48" value="Xác nhận thông tin" style="ellipse;whiteSpace=wrap;html=1;" parent="1" vertex="1">
          <mxGeometry x="360" y="70" width="140" height="70" as="geometry" />
        </mxCell>
        <mxCell id="gb4WSrx7NsK-yjNkoUn3-49" value="&amp;lt;include&amp;gt;" style="html=1;verticalAlign=bottom;endArrow=open;dashed=1;endSize=8;curved=0;rounded=0;exitX=1;exitY=0.5;exitDx=0;exitDy=0;entryX=0;entryY=0;entryDx=0;entryDy=0;" parent="1" source="gb4WSrx7NsK-yjNkoUn3-48" target="gb4WSrx7NsK-yjNkoUn3-28" edge="1">
          <mxGeometry x="0.0049" relative="1" as="geometry">
            <mxPoint x="260" y="410" as="sourcePoint" />
            <mxPoint x="180" y="410" as="targetPoint" />
            <mxPoint as="offset" />
          </mxGeometry>
        </mxCell>
        <mxCell id="gb4WSrx7NsK-yjNkoUn3-50" value="Chọn&lt;span style=&quot;background-color: initial;&quot;&gt;&amp;nbsp;địa chỉ giao dịch&lt;/span&gt;" style="ellipse;whiteSpace=wrap;html=1;" parent="1" vertex="1">
          <mxGeometry x="430" y="400" width="140" height="81" as="geometry" />
        </mxCell>
        <mxCell id="gb4WSrx7NsK-yjNkoUn3-56" value="Xác nhận số điện thoại" style="ellipse;whiteSpace=wrap;html=1;" parent="1" vertex="1">
          <mxGeometry x="250" y="150" width="90" height="80" as="geometry" />
        </mxCell>
        <mxCell id="gb4WSrx7NsK-yjNkoUn3-57" value="Xác nhận email" style="ellipse;whiteSpace=wrap;html=1;" parent="1" vertex="1">
          <mxGeometry x="385" y="175" width="90" height="85" as="geometry" />
        </mxCell>
        <mxCell id="gb4WSrx7NsK-yjNkoUn3-58" value="&amp;lt;include&amp;gt;" style="html=1;verticalAlign=bottom;endArrow=open;dashed=1;endSize=8;curved=0;rounded=0;exitX=0.5;exitY=0;exitDx=0;exitDy=0;entryX=0;entryY=1;entryDx=0;entryDy=0;" parent="1" source="gb4WSrx7NsK-yjNkoUn3-56" target="gb4WSrx7NsK-yjNkoUn3-48" edge="1">
          <mxGeometry relative="1" as="geometry">
            <mxPoint x="220" y="170" as="sourcePoint" />
            <mxPoint x="140" y="170" as="targetPoint" />
          </mxGeometry>
        </mxCell>
        <mxCell id="gb4WSrx7NsK-yjNkoUn3-59" value="&amp;lt;include&amp;gt;" style="html=1;verticalAlign=bottom;endArrow=open;dashed=1;endSize=8;curved=0;rounded=0;exitX=0.5;exitY=0;exitDx=0;exitDy=0;entryX=0.5;entryY=1;entryDx=0;entryDy=0;" parent="1" source="gb4WSrx7NsK-yjNkoUn3-57" target="gb4WSrx7NsK-yjNkoUn3-48" edge="1">
          <mxGeometry x="-1" y="-27" relative="1" as="geometry">
            <mxPoint x="100" y="570" as="sourcePoint" />
            <mxPoint x="20" y="570" as="targetPoint" />
            <mxPoint x="1" y="2" as="offset" />
          </mxGeometry>
        </mxCell>
        <mxCell id="trslUjJ0CBI68LTmMa5F-2" value="VIEWER&lt;div&gt;&lt;br&gt;&lt;/div&gt;" style="shape=umlActor;verticalLabelPosition=bottom;verticalAlign=top;html=1;outlineConnect=0;" parent="1" vertex="1">
          <mxGeometry x="10" y="470" width="30" height="60" as="geometry" />
        </mxCell>
        <mxCell id="trslUjJ0CBI68LTmMa5F-6" value="" style="endArrow=block;endSize=16;endFill=0;html=1;rounded=0;entryX=0.467;entryY=0.666;entryDx=0;entryDy=0;entryPerimeter=0;exitX=0.5;exitY=0;exitDx=0;exitDy=0;exitPerimeter=0;" parent="1" source="trslUjJ0CBI68LTmMa5F-2" target="gb4WSrx7NsK-yjNkoUn3-1" edge="1">
          <mxGeometry width="160" relative="1" as="geometry">
            <mxPoint x="430" y="410" as="sourcePoint" />
            <mxPoint x="590" y="410" as="targetPoint" />
          </mxGeometry>
        </mxCell>
        <mxCell id="trslUjJ0CBI68LTmMa5F-8" value="Xem sản phẩm" style="ellipse;whiteSpace=wrap;html=1;" parent="1" vertex="1">
          <mxGeometry x="90" y="490" width="140" height="70" as="geometry" />
        </mxCell>
        <mxCell id="trslUjJ0CBI68LTmMa5F-9" value="Xem bình luận" style="ellipse;whiteSpace=wrap;html=1;" parent="1" vertex="1">
          <mxGeometry x="90" y="600" width="140" height="70" as="geometry" />
        </mxCell>
        <mxCell id="trslUjJ0CBI68LTmMa5F-10" value="Xem ưu đãi" style="ellipse;whiteSpace=wrap;html=1;" parent="1" vertex="1">
          <mxGeometry x="90" y="410" width="140" height="70" as="geometry" />
        </mxCell>
        <mxCell id="trslUjJ0CBI68LTmMa5F-11" value="" style="endArrow=open;endFill=1;endSize=12;html=1;rounded=0;entryX=0;entryY=0.5;entryDx=0;entryDy=0;exitX=1;exitY=0.3333333333333333;exitDx=0;exitDy=0;exitPerimeter=0;" parent="1" source="trslUjJ0CBI68LTmMa5F-2" target="trslUjJ0CBI68LTmMa5F-8" edge="1">
          <mxGeometry width="160" relative="1" as="geometry">
            <mxPoint x="530" y="410" as="sourcePoint" />
            <mxPoint x="690" y="410" as="targetPoint" />
          </mxGeometry>
        </mxCell>
        <mxCell id="trslUjJ0CBI68LTmMa5F-14" value="" style="endArrow=open;endFill=1;endSize=12;html=1;rounded=0;exitX=1;exitY=0.3333333333333333;exitDx=0;exitDy=0;exitPerimeter=0;entryX=0;entryY=0.5;entryDx=0;entryDy=0;" parent="1" source="trslUjJ0CBI68LTmMa5F-2" target="trslUjJ0CBI68LTmMa5F-10" edge="1">
          <mxGeometry width="160" relative="1" as="geometry">
            <mxPoint x="50" y="490" as="sourcePoint" />
            <mxPoint x="230" y="750" as="targetPoint" />
          </mxGeometry>
        </mxCell>
        <mxCell id="kQSGkWk7wkDG4nqkNU7a-1" value="&amp;lt;include&amp;gt;" style="html=1;verticalAlign=bottom;endArrow=open;dashed=1;endSize=8;curved=0;rounded=0;exitX=0.5;exitY=1;exitDx=0;exitDy=0;entryX=0.5;entryY=0;entryDx=0;entryDy=0;" edge="1" parent="1" source="trslUjJ0CBI68LTmMa5F-8" target="trslUjJ0CBI68LTmMa5F-9">
          <mxGeometry relative="1" as="geometry">
            <mxPoint x="350" y="650" as="sourcePoint" />
            <mxPoint x="330" y="500" as="targetPoint" />
          </mxGeometry>
        </mxCell>
        <mxCell id="kQSGkWk7wkDG4nqkNU7a-2" value="Chọn phương thức thanh toán" style="ellipse;whiteSpace=wrap;html=1;" vertex="1" parent="1">
          <mxGeometry x="245" y="410" width="140" height="70" as="geometry" />
        </mxCell>
        <mxCell id="kQSGkWk7wkDG4nqkNU7a-4" value="&amp;lt;include&amp;gt;" style="html=1;verticalAlign=bottom;endArrow=open;dashed=1;endSize=8;curved=0;rounded=0;exitX=1;exitY=1;exitDx=0;exitDy=0;entryX=0.5;entryY=0;entryDx=0;entryDy=0;" edge="1" parent="1" source="gb4WSrx7NsK-yjNkoUn3-4" target="gb4WSrx7NsK-yjNkoUn3-50">
          <mxGeometry relative="1" as="geometry">
            <mxPoint x="420" y="530" as="sourcePoint" />
            <mxPoint x="420" y="570" as="targetPoint" />
            <Array as="points" />
            <mxPoint as="offset" />
          </mxGeometry>
        </mxCell>
        <mxCell id="kQSGkWk7wkDG4nqkNU7a-5" value="&amp;lt;include&amp;gt;" style="html=1;verticalAlign=bottom;endArrow=open;dashed=1;endSize=8;curved=0;rounded=0;exitX=0.401;exitY=0.978;exitDx=0;exitDy=0;exitPerimeter=0;" edge="1" parent="1" source="gb4WSrx7NsK-yjNkoUn3-4" target="kQSGkWk7wkDG4nqkNU7a-2">
          <mxGeometry relative="1" as="geometry">
            <mxPoint x="310" y="319" as="sourcePoint" />
            <mxPoint x="385" y="570" as="targetPoint" />
          </mxGeometry>
        </mxCell>
        <mxCell id="kQSGkWk7wkDG4nqkNU7a-6" value="Khóa tài khoản người dùng" style="ellipse;whiteSpace=wrap;html=1;" vertex="1" parent="1">
          <mxGeometry x="1260" y="465" width="140" height="70" as="geometry" />
        </mxCell>
        <mxCell id="kQSGkWk7wkDG4nqkNU7a-8" value="" style="endArrow=open;endFill=1;endSize=12;html=1;rounded=0;exitX=0;exitY=0.3333333333333333;exitDx=0;exitDy=0;exitPerimeter=0;entryX=1;entryY=0.5;entryDx=0;entryDy=0;" edge="1" parent="1" source="gb4WSrx7NsK-yjNkoUn3-9" target="kQSGkWk7wkDG4nqkNU7a-6">
          <mxGeometry width="160" relative="1" as="geometry">
            <mxPoint x="1460" y="440" as="sourcePoint" />
            <mxPoint x="1620" y="440" as="targetPoint" />
          </mxGeometry>
        </mxCell>
        <mxCell id="kQSGkWk7wkDG4nqkNU7a-9" value="" style="endArrow=open;endFill=1;endSize=12;html=1;rounded=0;exitX=1;exitY=1;exitDx=0;exitDy=0;entryX=0.044;entryY=0.318;entryDx=0;entryDy=0;entryPerimeter=0;dashed=1;dashPattern=8 8;" edge="1" parent="1" source="gb4WSrx7NsK-yjNkoUn3-27" target="kQSGkWk7wkDG4nqkNU7a-6">
          <mxGeometry width="160" relative="1" as="geometry">
            <mxPoint x="870" y="520" as="sourcePoint" />
            <mxPoint x="1030" y="520" as="targetPoint" />
          </mxGeometry>
        </mxCell>
        <mxCell id="kQSGkWk7wkDG4nqkNU7a-10" value="Quá 3 lần" style="edgeLabel;html=1;align=center;verticalAlign=middle;resizable=0;points=[];" vertex="1" connectable="0" parent="kQSGkWk7wkDG4nqkNU7a-9">
          <mxGeometry x="-0.8178" y="-6" relative="1" as="geometry">
            <mxPoint x="155" y="41" as="offset" />
          </mxGeometry>
        </mxCell>
      </root>
    </mxGraphModel>
  </diagram>
</mxfile>
